<svg width="14" height="13" viewBox="0 0 14 13" fill="none" xmlns="http://www.w3.org/2000/svg">
<g id="Group">
<path id="Vector" d="M3.71393 8.0407C4.25203 7.5168 4.77678 7.00588 5.31933 6.48198C4.99914 6.17024 4.67005 5.85416 4.34097 5.53376C4.27426 5.46881 4.19422 5.4082 4.13641 5.33459C3.91405 5.04449 3.69615 4.97955 3.29591 5.10944C1.91732 5.55974 0.285246 4.51626 0.0451041 3.09176C-0.212826 1.56335 0.818894 0.212462 2.39316 0.0176219C3.72728 -0.14691 5.08808 0.861929 5.29264 2.15653C5.36824 2.63714 5.35045 3.10042 5.12365 3.54639C5.09697 3.59402 5.14144 3.70659 5.19036 3.75422C5.63507 4.20019 6.08867 4.6375 6.53782 5.0748C8.97037 7.44319 11.4029 9.81158 13.831 12.1756C13.8755 12.2189 13.92 12.2666 14 12.3488C13.8888 12.3488 13.8177 12.3488 13.751 12.3488C13.0305 12.3488 12.3146 12.3445 11.5941 12.3532C11.4163 12.3575 11.2962 12.3099 11.1672 12.1843C9.73526 10.7815 8.29886 9.38726 6.86246 7.98441C6.80465 7.92813 6.76462 7.85885 6.7246 7.80689C6.16427 8.35245 5.63951 8.86769 5.09697 9.40025C5.39048 9.9458 5.40382 10.5563 5.2037 11.1798C5.01248 11.773 4.64782 12.2406 4.10972 12.5783C3.02464 13.2581 1.63271 13.1022 0.756635 12.2103C-0.141673 11.2967 -0.248402 9.9458 0.480917 8.91532C1.14353 7.98441 2.5577 7.46484 3.71393 8.0407ZM2.66443 3.90576C3.39375 3.90576 3.98965 3.32557 3.99855 2.61549C4.00299 1.90974 3.39375 1.31656 2.67332 1.31656C1.944 1.31656 1.34809 1.89675 1.3392 2.60683C1.33031 3.30825 1.944 3.90576 2.66443 3.90576ZM2.65553 11.6994C3.38485 11.7037 3.98521 11.1278 3.99855 10.4178C4.00744 9.71633 3.40709 9.11449 2.68221 9.11016C1.9529 9.10583 1.35254 9.68169 1.3392 10.3918C1.32586 11.0932 1.93066 11.695 2.65553 11.6994ZM6.66679 6.18756C6.46667 6.18756 6.3377 6.32178 6.34215 6.51662C6.3466 6.7028 6.48001 6.82403 6.67123 6.8197C6.87135 6.8197 7.00032 6.68548 6.99587 6.49064C6.99142 6.30879 6.85801 6.18756 6.66679 6.18756Z" fill="white"/>
<path id="Vector_2" d="M8.62341 5.80631C8.62341 5.80631 8.59228 5.78033 8.56115 5.75002C8.15647 5.36034 7.75623 4.96633 7.31152 4.53769C7.44938 4.41645 7.58724 4.30821 7.71176 4.18697C8.86355 3.06556 10.0153 1.94848 11.1671 0.822735C11.2872 0.705831 11.4028 0.658203 11.5718 0.658203C12.3634 0.666863 13.155 0.662533 13.9199 0.662533C12.1677 2.36414 10.4067 4.0744 8.62341 5.80631Z" fill="white"/>
</g>
</svg>
