<svg width="16" height="14" viewBox="0 0 16 14" fill="none" xmlns="http://www.w3.org/2000/svg">
<g id="Group">
<path id="Vector" d="M5.05804 12.2406C5.25074 12.035 5.44344 11.8312 5.63263 11.6274C5.74475 11.5077 5.91117 11.4722 6.05657 11.5357C7.80311 12.3098 9.46732 12.134 10.9914 10.8253C12.0092 9.95025 12.5452 8.80226 12.6679 7.44673C12.6906 7.2018 12.5084 6.98865 12.279 6.98865H11.3242C10.9756 6.98865 10.8022 6.53993 11.0474 6.2763C11.7639 5.5116 12.4804 4.74502 13.1951 3.98406C13.3476 3.82139 13.5963 3.82139 13.7487 3.98406C14.4564 4.74128 15.1712 5.50412 15.8859 6.26882C16.1312 6.53245 15.9577 6.98118 15.6091 6.98118H14.6334C14.4267 6.98118 14.2585 7.15132 14.2427 7.37194C14.1131 9.32203 13.3476 10.9393 11.9023 12.1939C10.8635 13.0951 9.66002 13.5718 8.32164 13.641C7.19348 13.7009 6.1389 13.4503 5.15614 12.9062C4.91965 12.7754 4.8706 12.4407 5.05804 12.2406Z" fill="white"/>
<path id="Vector_2" d="M3.73306 6.98852H4.69129C5.0399 6.98852 5.21333 7.43725 4.96807 7.70088C4.24984 8.46745 3.5316 9.23402 2.81686 9.99686C2.66446 10.1595 2.41745 10.1595 2.2633 9.99686C1.55207 9.23776 0.83558 8.47119 0.115591 7.70275C-0.131412 7.43912 0.0437676 6.99039 0.392375 6.99039H1.38214C1.5871 6.99039 1.75703 6.82212 1.77279 6.60337C1.89542 4.7318 2.6084 3.15939 3.96079 1.91418C5.03464 0.92698 6.29594 0.403467 7.71314 0.332418C8.83429 0.276327 9.88012 0.526866 10.8506 1.06347C11.0854 1.19435 11.1327 1.52902 10.947 1.72908C10.7543 1.93474 10.5616 2.14041 10.3706 2.34421C10.2585 2.46387 10.0886 2.50126 9.94318 2.43582C8.33503 1.71038 6.76367 1.82069 5.2869 2.92942C4.11144 3.81379 3.48605 5.03469 3.34416 6.52671C3.31963 6.77351 3.50007 6.98852 3.73306 6.98852Z" fill="white"/>
</g>
</svg>
