<svg width="42" height="42" viewBox="0 0 42 42" fill="none" xmlns="http://www.w3.org/2000/svg">
<path d="M20.9671 42C9.4181 42 0 32.5951 0 21.0592C0 9.39185 9.39179 -0.0262526 20.9803 5.49795e-05C32.6608 0.0263625 42 9.37869 42 21.0329C42.0131 32.6214 32.6213 41.9869 20.9671 42ZM18.5994 23.5058C18.4021 23.3217 18.2837 23.2165 18.1654 23.0981C17.2446 22.1905 16.337 21.2697 15.4031 20.3621C14.6533 19.6386 13.6273 19.4545 12.7197 19.8491C11.1281 20.5331 10.7466 22.5456 11.9962 23.8215C13.5221 25.3868 15.0742 26.9258 16.6132 28.478C17.876 29.7539 19.244 29.7539 20.5199 28.478C22.0194 26.9784 23.5058 25.4789 25.0053 23.9794C26.7153 22.2694 28.4253 20.5726 30.109 18.8494C30.9114 18.0207 31.0297 16.7974 30.4378 15.8503C29.8591 14.9164 28.7015 14.4429 27.6624 14.8112C27.2283 14.9559 26.8074 15.2453 26.4785 15.5741C23.8478 18.2049 21.2433 20.8356 18.5994 23.5058Z" fill="white"/>
</svg>
